# xmcd
#
# Track frame offsets: 
#        150
#        28969
#        116090
#        204469
#
# Disc length: 2748 seconds
#
# Revision: 0
# Processed by: cddbd v1.5.1PL2 Copyright (c) Steve Scherf et al.
# Submitted via: ExactAudioCopy v0.95b3
#
DISCID=350aba04
DTITLE=Neil Young and Crazy Horse - Disc 2 Neil Young and Crazy Horse 
DTITLE=Philadelphia 1991-02-06
DYEAR=1991
DGENRE=Rock
TTITLE0=Track01 Powderfinger
TTITLE1=Track02 Love and Only Love/Keep On Rockin' In The Free World
TTITLE2=Track03 Tonights The Night
TTITLE3=Track04 Audience
EXTD=
EXTT0=
EXTT1=
EXTT2=
EXTT3=
PLAYORDER=
